<?xml version="1.0" encoding="UTF-8" standalone="no"?><svg xmlns="http://www.w3.org/2000/svg" xmlns:xlink="http://www.w3.org/1999/xlink" contentScriptType="application/ecmascript" contentStyleType="text/css" height="497px" preserveAspectRatio="none" style="width:173px;height:497px;" version="1.1" viewBox="0 0 173 497" width="173px" zoomAndPan="magnify"><defs><filter height="300%" id="fcy5uu3" width="300%" x="-1" y="-1"><feGaussianBlur result="blurOut" stdDeviation="2.0"/><feColorMatrix in="blurOut" result="blurOut2" type="matrix" values="0 0 0 0 0 0 0 0 0 0 0 0 0 0 0 0 0 0 .4 0"/><feOffset dx="4.0" dy="4.0" in="blurOut2" result="blurOut3"/><feBlend in="SourceGraphic" in2="blurOut3" mode="normal"/></filter></defs><g><!--class Network--><rect fill="#FEFECE" filter="url(#fcy5uu3)" height="48" style="stroke: #A80036; stroke-width: 1.5;" width="81" x="44.5" y="8"/><ellipse cx="59.5" cy="24" fill="#ADD1B2" rx="11" ry="11" style="stroke: #A80036; stroke-width: 1.0;"/><path d="M62.4688,29.6406 Q61.8906,29.9375 61.25,30.0859 Q60.6094,30.2344 59.9063,30.2344 Q57.4063,30.2344 56.0859,28.5859 Q54.7656,26.9375 54.7656,23.8125 Q54.7656,20.6875 56.0859,19.0313 Q57.4063,17.375 59.9063,17.375 Q60.6094,17.375 61.2578,17.5313 Q61.9063,17.6875 62.4688,17.9844 L62.4688,20.7031 Q61.8438,20.125 61.25,19.8516 Q60.6563,19.5781 60.0313,19.5781 Q58.6875,19.5781 58,20.6484 Q57.3125,21.7188 57.3125,23.8125 Q57.3125,25.9063 58,26.9766 Q58.6875,28.0469 60.0313,28.0469 Q60.6563,28.0469 61.25,27.7734 Q61.8438,27.5 62.4688,26.9219 L62.4688,29.6406 Z "/><text fill="#000000" font-family="Inconsolata" font-size="12" lengthAdjust="spacingAndGlyphs" textLength="49" x="73.5" y="29.766">Network</text><line style="stroke: #A80036; stroke-width: 1.5;" x1="45.5" x2="124.5" y1="40" y2="40"/><line style="stroke: #A80036; stroke-width: 1.5;" x1="45.5" x2="124.5" y1="48" y2="48"/><!--class Layer--><rect fill="#FEFECE" filter="url(#fcy5uu3)" height="48" style="stroke: #A80036; stroke-width: 1.5;" width="67" x="51.5" y="116"/><ellipse cx="66.5" cy="132" fill="#ADD1B2" rx="11" ry="11" style="stroke: #A80036; stroke-width: 1.0;"/><path d="M69.4688,137.6406 Q68.8906,137.9375 68.25,138.0859 Q67.6094,138.2344 66.9063,138.2344 Q64.4063,138.2344 63.0859,136.5859 Q61.7656,134.9375 61.7656,131.8125 Q61.7656,128.6875 63.0859,127.0313 Q64.4063,125.375 66.9063,125.375 Q67.6094,125.375 68.2578,125.5313 Q68.9063,125.6875 69.4688,125.9844 L69.4688,128.7031 Q68.8438,128.125 68.25,127.8516 Q67.6563,127.5781 67.0313,127.5781 Q65.6875,127.5781 65,128.6484 Q64.3125,129.7188 64.3125,131.8125 Q64.3125,133.9063 65,134.9766 Q65.6875,136.0469 67.0313,136.0469 Q67.6563,136.0469 68.25,135.7734 Q68.8438,135.5 69.4688,134.9219 L69.4688,137.6406 Z "/><text fill="#000000" font-family="Inconsolata" font-size="12" lengthAdjust="spacingAndGlyphs" textLength="35" x="80.5" y="137.766">Layer</text><line style="stroke: #A80036; stroke-width: 1.5;" x1="52.5" x2="117.5" y1="148" y2="148"/><line style="stroke: #A80036; stroke-width: 1.5;" x1="52.5" x2="117.5" y1="156" y2="156"/><!--class OutputLayer--><rect fill="#FEFECE" filter="url(#fcy5uu3)" height="48" style="stroke: #A80036; stroke-width: 1.5;" width="109" x="30.5" y="224"/><ellipse cx="45.5" cy="240" fill="#ADD1B2" rx="11" ry="11" style="stroke: #A80036; stroke-width: 1.0;"/><path d="M48.4688,245.6406 Q47.8906,245.9375 47.25,246.0859 Q46.6094,246.2344 45.9063,246.2344 Q43.4063,246.2344 42.0859,244.5859 Q40.7656,242.9375 40.7656,239.8125 Q40.7656,236.6875 42.0859,235.0313 Q43.4063,233.375 45.9063,233.375 Q46.6094,233.375 47.2578,233.5313 Q47.9063,233.6875 48.4688,233.9844 L48.4688,236.7031 Q47.8438,236.125 47.25,235.8516 Q46.6563,235.5781 46.0313,235.5781 Q44.6875,235.5781 44,236.6484 Q43.3125,237.7188 43.3125,239.8125 Q43.3125,241.9063 44,242.9766 Q44.6875,244.0469 46.0313,244.0469 Q46.6563,244.0469 47.25,243.7734 Q47.8438,243.5 48.4688,242.9219 L48.4688,245.6406 Z "/><text fill="#000000" font-family="Inconsolata" font-size="12" lengthAdjust="spacingAndGlyphs" textLength="77" x="59.5" y="245.766">OutputLayer</text><line style="stroke: #A80036; stroke-width: 1.5;" x1="31.5" x2="138.5" y1="256" y2="256"/><line style="stroke: #A80036; stroke-width: 1.5;" x1="31.5" x2="138.5" y1="264" y2="264"/><!--class ActivationFunction--><rect fill="#FEFECE" filter="url(#fcy5uu3)" height="48" style="stroke: #A80036; stroke-width: 1.5;" width="158" x="6" y="332"/><ellipse cx="21" cy="348" fill="#ADD1B2" rx="11" ry="11" style="stroke: #A80036; stroke-width: 1.0;"/><path d="M23.9688,353.6406 Q23.3906,353.9375 22.75,354.0859 Q22.1094,354.2344 21.4063,354.2344 Q18.9063,354.2344 17.5859,352.5859 Q16.2656,350.9375 16.2656,347.8125 Q16.2656,344.6875 17.5859,343.0313 Q18.9063,341.375 21.4063,341.375 Q22.1094,341.375 22.7578,341.5313 Q23.4063,341.6875 23.9688,341.9844 L23.9688,344.7031 Q23.3438,344.125 22.75,343.8516 Q22.1563,343.5781 21.5313,343.5781 Q20.1875,343.5781 19.5,344.6484 Q18.8125,345.7188 18.8125,347.8125 Q18.8125,349.9063 19.5,350.9766 Q20.1875,352.0469 21.5313,352.0469 Q22.1563,352.0469 22.75,351.7734 Q23.3438,351.5 23.9688,350.9219 L23.9688,353.6406 Z "/><text fill="#000000" font-family="Inconsolata" font-size="12" lengthAdjust="spacingAndGlyphs" textLength="126" x="35" y="353.766">ActivationFunction</text><line style="stroke: #A80036; stroke-width: 1.5;" x1="7" x2="163" y1="364" y2="364"/><line style="stroke: #A80036; stroke-width: 1.5;" x1="7" x2="163" y1="372" y2="372"/><!--class CostFunction--><rect fill="#FEFECE" filter="url(#fcy5uu3)" height="48" style="stroke: #A80036; stroke-width: 1.5;" width="116" x="27" y="440"/><ellipse cx="42" cy="456" fill="#ADD1B2" rx="11" ry="11" style="stroke: #A80036; stroke-width: 1.0;"/><path d="M44.9688,461.6406 Q44.3906,461.9375 43.75,462.0859 Q43.1094,462.2344 42.4063,462.2344 Q39.9063,462.2344 38.5859,460.5859 Q37.2656,458.9375 37.2656,455.8125 Q37.2656,452.6875 38.5859,451.0313 Q39.9063,449.375 42.4063,449.375 Q43.1094,449.375 43.7578,449.5313 Q44.4063,449.6875 44.9688,449.9844 L44.9688,452.7031 Q44.3438,452.125 43.75,451.8516 Q43.1563,451.5781 42.5313,451.5781 Q41.1875,451.5781 40.5,452.6484 Q39.8125,453.7188 39.8125,455.8125 Q39.8125,457.9063 40.5,458.9766 Q41.1875,460.0469 42.5313,460.0469 Q43.1563,460.0469 43.75,459.7734 Q44.3438,459.5 44.9688,458.9219 L44.9688,461.6406 Z "/><text fill="#000000" font-family="Inconsolata" font-size="12" lengthAdjust="spacingAndGlyphs" textLength="84" x="56" y="461.766">CostFunction</text><line style="stroke: #A80036; stroke-width: 1.5;" x1="28" x2="142" y1="472" y2="472"/><line style="stroke: #A80036; stroke-width: 1.5;" x1="28" x2="142" y1="480" y2="480"/></g></svg>