<?xml version="1.0" encoding="UTF-8" standalone="no"?><svg xmlns="http://www.w3.org/2000/svg" xmlns:xlink="http://www.w3.org/1999/xlink" contentScriptType="application/ecmascript" contentStyleType="text/css" height="281px" preserveAspectRatio="none" style="width:324px;height:281px;" version="1.1" viewBox="0 0 324 281" width="324px" zoomAndPan="magnify"><defs><filter height="300%" id="f4obq1g" width="300%" x="-1" y="-1"><feGaussianBlur result="blurOut" stdDeviation="2.0"/><feColorMatrix in="blurOut" result="blurOut2" type="matrix" values="0 0 0 0 0 0 0 0 0 0 0 0 0 0 0 0 0 0 .4 0"/><feOffset dx="4.0" dy="4.0" in="blurOut2" result="blurOut3"/><feBlend in="SourceGraphic" in2="blurOut3" mode="normal"/></filter></defs><g><!--class Network--><rect fill="#FEFECE" filter="url(#f4obq1g)" height="48" style="stroke: #A80036; stroke-width: 1.5;" width="81" x="108.5" y="8"/><ellipse cx="123.5" cy="24" fill="#ADD1B2" rx="11" ry="11" style="stroke: #A80036; stroke-width: 1.0;"/><path d="M126.4688,29.6406 Q125.8906,29.9375 125.25,30.0859 Q124.6094,30.2344 123.9063,30.2344 Q121.4063,30.2344 120.0859,28.5859 Q118.7656,26.9375 118.7656,23.8125 Q118.7656,20.6875 120.0859,19.0313 Q121.4063,17.375 123.9063,17.375 Q124.6094,17.375 125.2578,17.5313 Q125.9063,17.6875 126.4688,17.9844 L126.4688,20.7031 Q125.8438,20.125 125.25,19.8516 Q124.6563,19.5781 124.0313,19.5781 Q122.6875,19.5781 122,20.6484 Q121.3125,21.7188 121.3125,23.8125 Q121.3125,25.9063 122,26.9766 Q122.6875,28.0469 124.0313,28.0469 Q124.6563,28.0469 125.25,27.7734 Q125.8438,27.5 126.4688,26.9219 L126.4688,29.6406 Z "/><text fill="#000000" font-family="Inconsolata" font-size="12" lengthAdjust="spacingAndGlyphs" textLength="49" x="137.5" y="29.766">Network</text><line style="stroke: #A80036; stroke-width: 1.5;" x1="109.5" x2="188.5" y1="40" y2="40"/><line style="stroke: #A80036; stroke-width: 1.5;" x1="109.5" x2="188.5" y1="48" y2="48"/><!--class Layer--><rect fill="#FEFECE" filter="url(#f4obq1g)" height="48" style="stroke: #A80036; stroke-width: 1.5;" width="67" x="177.5" y="116"/><ellipse cx="192.5" cy="132" fill="#ADD1B2" rx="11" ry="11" style="stroke: #A80036; stroke-width: 1.0;"/><path d="M195.4688,137.6406 Q194.8906,137.9375 194.25,138.0859 Q193.6094,138.2344 192.9063,138.2344 Q190.4063,138.2344 189.0859,136.5859 Q187.7656,134.9375 187.7656,131.8125 Q187.7656,128.6875 189.0859,127.0313 Q190.4063,125.375 192.9063,125.375 Q193.6094,125.375 194.2578,125.5313 Q194.9063,125.6875 195.4688,125.9844 L195.4688,128.7031 Q194.8438,128.125 194.25,127.8516 Q193.6563,127.5781 193.0313,127.5781 Q191.6875,127.5781 191,128.6484 Q190.3125,129.7188 190.3125,131.8125 Q190.3125,133.9063 191,134.9766 Q191.6875,136.0469 193.0313,136.0469 Q193.6563,136.0469 194.25,135.7734 Q194.8438,135.5 195.4688,134.9219 L195.4688,137.6406 Z "/><text fill="#000000" font-family="Inconsolata" font-size="12" lengthAdjust="spacingAndGlyphs" textLength="35" x="206.5" y="137.766">Layer</text><line style="stroke: #A80036; stroke-width: 1.5;" x1="178.5" x2="243.5" y1="148" y2="148"/><line style="stroke: #A80036; stroke-width: 1.5;" x1="178.5" x2="243.5" y1="156" y2="156"/><!--class OutputLayer--><rect fill="#FEFECE" filter="url(#f4obq1g)" height="48" style="stroke: #A80036; stroke-width: 1.5;" width="109" x="33.5" y="116"/><ellipse cx="48.5" cy="132" fill="#ADD1B2" rx="11" ry="11" style="stroke: #A80036; stroke-width: 1.0;"/><path d="M51.4688,137.6406 Q50.8906,137.9375 50.25,138.0859 Q49.6094,138.2344 48.9063,138.2344 Q46.4063,138.2344 45.0859,136.5859 Q43.7656,134.9375 43.7656,131.8125 Q43.7656,128.6875 45.0859,127.0313 Q46.4063,125.375 48.9063,125.375 Q49.6094,125.375 50.2578,125.5313 Q50.9063,125.6875 51.4688,125.9844 L51.4688,128.7031 Q50.8438,128.125 50.25,127.8516 Q49.6563,127.5781 49.0313,127.5781 Q47.6875,127.5781 47,128.6484 Q46.3125,129.7188 46.3125,131.8125 Q46.3125,133.9063 47,134.9766 Q47.6875,136.0469 49.0313,136.0469 Q49.6563,136.0469 50.25,135.7734 Q50.8438,135.5 51.4688,134.9219 L51.4688,137.6406 Z "/><text fill="#000000" font-family="Inconsolata" font-size="12" lengthAdjust="spacingAndGlyphs" textLength="77" x="62.5" y="137.766">OutputLayer</text><line style="stroke: #A80036; stroke-width: 1.5;" x1="34.5" x2="141.5" y1="148" y2="148"/><line style="stroke: #A80036; stroke-width: 1.5;" x1="34.5" x2="141.5" y1="156" y2="156"/><!--class ActivationFunction--><rect fill="#FEFECE" filter="url(#f4obq1g)" height="48" style="stroke: #A80036; stroke-width: 1.5;" width="158" x="157" y="224"/><ellipse cx="172" cy="240" fill="#ADD1B2" rx="11" ry="11" style="stroke: #A80036; stroke-width: 1.0;"/><path d="M174.9688,245.6406 Q174.3906,245.9375 173.75,246.0859 Q173.1094,246.2344 172.4063,246.2344 Q169.9063,246.2344 168.5859,244.5859 Q167.2656,242.9375 167.2656,239.8125 Q167.2656,236.6875 168.5859,235.0313 Q169.9063,233.375 172.4063,233.375 Q173.1094,233.375 173.7578,233.5313 Q174.4063,233.6875 174.9688,233.9844 L174.9688,236.7031 Q174.3438,236.125 173.75,235.8516 Q173.1563,235.5781 172.5313,235.5781 Q171.1875,235.5781 170.5,236.6484 Q169.8125,237.7188 169.8125,239.8125 Q169.8125,241.9063 170.5,242.9766 Q171.1875,244.0469 172.5313,244.0469 Q173.1563,244.0469 173.75,243.7734 Q174.3438,243.5 174.9688,242.9219 L174.9688,245.6406 Z "/><text fill="#000000" font-family="Inconsolata" font-size="12" lengthAdjust="spacingAndGlyphs" textLength="126" x="186" y="245.766">ActivationFunction</text><line style="stroke: #A80036; stroke-width: 1.5;" x1="158" x2="314" y1="256" y2="256"/><line style="stroke: #A80036; stroke-width: 1.5;" x1="158" x2="314" y1="264" y2="264"/><!--class CostFunction--><rect fill="#FEFECE" filter="url(#f4obq1g)" height="48" style="stroke: #A80036; stroke-width: 1.5;" width="116" x="6" y="224"/><ellipse cx="21" cy="240" fill="#ADD1B2" rx="11" ry="11" style="stroke: #A80036; stroke-width: 1.0;"/><path d="M23.9688,245.6406 Q23.3906,245.9375 22.75,246.0859 Q22.1094,246.2344 21.4063,246.2344 Q18.9063,246.2344 17.5859,244.5859 Q16.2656,242.9375 16.2656,239.8125 Q16.2656,236.6875 17.5859,235.0313 Q18.9063,233.375 21.4063,233.375 Q22.1094,233.375 22.7578,233.5313 Q23.4063,233.6875 23.9688,233.9844 L23.9688,236.7031 Q23.3438,236.125 22.75,235.8516 Q22.1563,235.5781 21.5313,235.5781 Q20.1875,235.5781 19.5,236.6484 Q18.8125,237.7188 18.8125,239.8125 Q18.8125,241.9063 19.5,242.9766 Q20.1875,244.0469 21.5313,244.0469 Q22.1563,244.0469 22.75,243.7734 Q23.3438,243.5 23.9688,242.9219 L23.9688,245.6406 Z "/><text fill="#000000" font-family="Inconsolata" font-size="12" lengthAdjust="spacingAndGlyphs" textLength="84" x="35" y="245.766">CostFunction</text><line style="stroke: #A80036; stroke-width: 1.5;" x1="7" x2="121" y1="256" y2="256"/><line style="stroke: #A80036; stroke-width: 1.5;" x1="7" x2="121" y1="264" y2="264"/><path d="M169.5211,67.7464 C178.5854,83.5358 189.0043,101.6849 197.1324,115.8436 " fill="none" style="stroke: #A80036; stroke-width: 1.0;"/><polygon fill="#A80036" points="162.914,56.2373,162.4322,63.4323,168.8884,66.6443,169.3702,59.4493,162.914,56.2373" style="stroke: #A80036; stroke-width: 1.0;"/><text fill="#000000" font-family="Inconsolata" font-size="13" lengthAdjust="spacingAndGlyphs" textLength="8" x="157.2066" y="79.077">1</text><text fill="#000000" font-family="Inconsolata" font-size="13" lengthAdjust="spacingAndGlyphs" textLength="8" x="177.9897" y="105.2884">*</text><path d="M128.8099,67.7464 C119.8918,83.5358 109.6409,101.6849 101.6439,115.8436 " fill="none" style="stroke: #A80036; stroke-width: 1.0;"/><polygon fill="#A80036" points="135.3104,56.2373,128.8768,59.4944,129.4088,66.6858,135.8424,63.4287,135.3104,56.2373" style="stroke: #A80036; stroke-width: 1.0;"/><text fill="#000000" font-family="Inconsolata" font-size="13" lengthAdjust="spacingAndGlyphs" textLength="8" x="113.0447" y="79.077">1</text><text fill="#000000" font-family="Inconsolata" font-size="13" lengthAdjust="spacingAndGlyphs" textLength="8" x="96.2357" y="105.3523">1</text><path d="M142.7734,140 C147.6456,140 152.5177,140 157.3898,140 " fill="none" style="stroke: #A80036; stroke-width: 1.0;"/><polygon fill="none" points="157.4198,132.9999,177.4197,140,157.4197,146.9999,157.4198,132.9999" style="stroke: #A80036; stroke-width: 1.0;"/><path d="M219.5985,177.1456 C223.1759,192.6 227.2272,210.1014 230.4082,223.8436 " fill="none" style="stroke: #A80036; stroke-width: 1.0;"/><polygon fill="#A80036" points="216.6105,164.2373,214.0667,170.9848,219.3168,175.9281,221.8606,169.1806,216.6105,164.2373" style="stroke: #A80036; stroke-width: 1.0;"/><text fill="#000000" font-family="Inconsolata" font-size="13" lengthAdjust="spacingAndGlyphs" textLength="8" x="208.9829" y="187.077">1</text><text fill="#000000" font-family="Inconsolata" font-size="13" lengthAdjust="spacingAndGlyphs" textLength="8" x="214.4554" y="213.3523">1</text><path d="M79.7454,177.1456 C76.3111,192.6 72.4219,210.1014 69.3681,223.8436 " fill="none" style="stroke: #A80036; stroke-width: 1.0;"/><polygon fill="#A80036" points="82.6139,164.2373,77.4076,169.2267,80.0107,175.9515,85.217,170.9622,82.6139,164.2373" style="stroke: #A80036; stroke-width: 1.0;"/><text fill="#000000" font-family="Inconsolata" font-size="13" lengthAdjust="spacingAndGlyphs" textLength="8" x="67.8184" y="187.077">1</text><text fill="#000000" font-family="Inconsolata" font-size="13" lengthAdjust="spacingAndGlyphs" textLength="8" x="61.7358" y="213.3523">1</text></g></svg>