<?xml version="1.0" encoding="UTF-8" standalone="no"?><svg xmlns="http://www.w3.org/2000/svg" xmlns:xlink="http://www.w3.org/1999/xlink" contentScriptType="application/ecmascript" contentStyleType="text/css" height="296px" preserveAspectRatio="none" style="width:439px;height:296px;" version="1.1" viewBox="0 0 439 296" width="439px" zoomAndPan="magnify"><defs><filter height="300%" id="fhdlrkw" width="300%" x="-1" y="-1"><feGaussianBlur result="blurOut" stdDeviation="2.0"/><feColorMatrix in="blurOut" result="blurOut2" type="matrix" values="0 0 0 0 0 0 0 0 0 0 0 0 0 0 0 0 0 0 .4 0"/><feOffset dx="4.0" dy="4.0" in="blurOut2" result="blurOut3"/><feBlend in="SourceGraphic" in2="blurOut3" mode="normal"/></filter></defs><g><!--class Network--><rect fill="#FEFECE" filter="url(#fhdlrkw)" height="48" style="stroke: #A80036; stroke-width: 1.5;" width="81" x="138" y="8"/><ellipse cx="153" cy="24" fill="#ADD1B2" rx="11" ry="11" style="stroke: #A80036; stroke-width: 1.0;"/><path d="M155.9688,29.6406 Q155.3906,29.9375 154.75,30.0859 Q154.1094,30.2344 153.4063,30.2344 Q150.9063,30.2344 149.5859,28.5859 Q148.2656,26.9375 148.2656,23.8125 Q148.2656,20.6875 149.5859,19.0313 Q150.9063,17.375 153.4063,17.375 Q154.1094,17.375 154.7578,17.5313 Q155.4063,17.6875 155.9688,17.9844 L155.9688,20.7031 Q155.3438,20.125 154.75,19.8516 Q154.1563,19.5781 153.5313,19.5781 Q152.1875,19.5781 151.5,20.6484 Q150.8125,21.7188 150.8125,23.8125 Q150.8125,25.9063 151.5,26.9766 Q152.1875,28.0469 153.5313,28.0469 Q154.1563,28.0469 154.75,27.7734 Q155.3438,27.5 155.9688,26.9219 L155.9688,29.6406 Z "/><text fill="#000000" font-family="Inconsolata" font-size="12" lengthAdjust="spacingAndGlyphs" textLength="49" x="167" y="29.766">Network</text><line style="stroke: #A80036; stroke-width: 1.5;" x1="139" x2="218" y1="40" y2="40"/><line style="stroke: #A80036; stroke-width: 1.5;" x1="139" x2="218" y1="48" y2="48"/><!--class Layer--><rect fill="#FEFECE" filter="url(#fhdlrkw)" height="48" style="stroke: #A80036; stroke-width: 1.5;" width="67" x="254" y="8"/><ellipse cx="269" cy="24" fill="#ADD1B2" rx="11" ry="11" style="stroke: #A80036; stroke-width: 1.0;"/><path d="M271.9688,29.6406 Q271.3906,29.9375 270.75,30.0859 Q270.1094,30.2344 269.4063,30.2344 Q266.9063,30.2344 265.5859,28.5859 Q264.2656,26.9375 264.2656,23.8125 Q264.2656,20.6875 265.5859,19.0313 Q266.9063,17.375 269.4063,17.375 Q270.1094,17.375 270.7578,17.5313 Q271.4063,17.6875 271.9688,17.9844 L271.9688,20.7031 Q271.3438,20.125 270.75,19.8516 Q270.1563,19.5781 269.5313,19.5781 Q268.1875,19.5781 267.5,20.6484 Q266.8125,21.7188 266.8125,23.8125 Q266.8125,25.9063 267.5,26.9766 Q268.1875,28.0469 269.5313,28.0469 Q270.1563,28.0469 270.75,27.7734 Q271.3438,27.5 271.9688,26.9219 L271.9688,29.6406 Z "/><text fill="#000000" font-family="Inconsolata" font-size="12" lengthAdjust="spacingAndGlyphs" textLength="35" x="283" y="29.766">Layer</text><line style="stroke: #A80036; stroke-width: 1.5;" x1="255" x2="320" y1="40" y2="40"/><line style="stroke: #A80036; stroke-width: 1.5;" x1="255" x2="320" y1="48" y2="48"/><!--class OutputLayer--><rect fill="#FEFECE" filter="url(#fhdlrkw)" height="48" style="stroke: #A80036; stroke-width: 1.5;" width="109" x="124" y="116"/><ellipse cx="139" cy="132" fill="#ADD1B2" rx="11" ry="11" style="stroke: #A80036; stroke-width: 1.0;"/><path d="M141.9688,137.6406 Q141.3906,137.9375 140.75,138.0859 Q140.1094,138.2344 139.4063,138.2344 Q136.9063,138.2344 135.5859,136.5859 Q134.2656,134.9375 134.2656,131.8125 Q134.2656,128.6875 135.5859,127.0313 Q136.9063,125.375 139.4063,125.375 Q140.1094,125.375 140.7578,125.5313 Q141.4063,125.6875 141.9688,125.9844 L141.9688,128.7031 Q141.3438,128.125 140.75,127.8516 Q140.1563,127.5781 139.5313,127.5781 Q138.1875,127.5781 137.5,128.6484 Q136.8125,129.7188 136.8125,131.8125 Q136.8125,133.9063 137.5,134.9766 Q138.1875,136.0469 139.5313,136.0469 Q140.1563,136.0469 140.75,135.7734 Q141.3438,135.5 141.9688,134.9219 L141.9688,137.6406 Z "/><text fill="#000000" font-family="Inconsolata" font-size="12" lengthAdjust="spacingAndGlyphs" textLength="77" x="153" y="137.766">OutputLayer</text><line style="stroke: #A80036; stroke-width: 1.5;" x1="125" x2="232" y1="148" y2="148"/><line style="stroke: #A80036; stroke-width: 1.5;" x1="125" x2="232" y1="156" y2="156"/><polygon fill="#FBFB77" filter="url(#fhdlrkw)" points="6,224,6,287.547,219,287.547,219,234,209,224,6,224" style="stroke: #A80036; stroke-width: 1.0;"/><polygon fill="#FBFB77" points="6,224,6,287.547,219,287.547,219,234,209,224,134.9148,224,164.8248,164.0353,126.9148,224,6,224" style="stroke: #A80036; stroke-width: 1.0;"/><line style="stroke: #A80036; stroke-width: 1.0;" x1="209" x2="209" y1="224" y2="234"/><line style="stroke: #A80036; stroke-width: 1.0;" x1="219" x2="209" y1="234" y2="234"/><text fill="#000000" font-family="Inconsolata" font-size="13" lengthAdjust="spacingAndGlyphs" textLength="176" x="12" y="244.171">Embeds CrossEntropy as</text><text fill="#000000" font-family="Inconsolata" font-size="13" lengthAdjust="spacingAndGlyphs" textLength="192" x="12" y="262.02">a cost function for now.</text><text fill="#000000" font-family="Inconsolata" font-size="13" lengthAdjust="spacingAndGlyphs" textLength="112" x="12" y="279.869">To be improved</text><!--class ActivationFunction--><rect fill="#FEFECE" filter="url(#fhdlrkw)" height="48" style="stroke: #A80036; stroke-width: 1.5;" width="158" x="268.5" y="116"/><ellipse cx="283.5" cy="132" fill="#ADD1B2" rx="11" ry="11" style="stroke: #A80036; stroke-width: 1.0;"/><path d="M286.4688,137.6406 Q285.8906,137.9375 285.25,138.0859 Q284.6094,138.2344 283.9063,138.2344 Q281.4063,138.2344 280.0859,136.5859 Q278.7656,134.9375 278.7656,131.8125 Q278.7656,128.6875 280.0859,127.0313 Q281.4063,125.375 283.9063,125.375 Q284.6094,125.375 285.2578,125.5313 Q285.9063,125.6875 286.4688,125.9844 L286.4688,128.7031 Q285.8438,128.125 285.25,127.8516 Q284.6563,127.5781 284.0313,127.5781 Q282.6875,127.5781 282,128.6484 Q281.3125,129.7188 281.3125,131.8125 Q281.3125,133.9063 282,134.9766 Q282.6875,136.0469 284.0313,136.0469 Q284.6563,136.0469 285.25,135.7734 Q285.8438,135.5 286.4688,134.9219 L286.4688,137.6406 Z "/><text fill="#000000" font-family="Inconsolata" font-size="12" lengthAdjust="spacingAndGlyphs" textLength="126" x="297.5" y="137.766">ActivationFunction</text><line style="stroke: #A80036; stroke-width: 1.5;" x1="269.5" x2="425.5" y1="148" y2="148"/><line style="stroke: #A80036; stroke-width: 1.5;" x1="269.5" x2="425.5" y1="156" y2="156"/><!--class ReLu--><rect fill="#FEFECE" filter="url(#fhdlrkw)" height="48" style="stroke: #A80036; stroke-width: 1.5;" width="60" x="370.5" y="232"/><ellipse cx="385.5" cy="248" fill="#ADD1B2" rx="11" ry="11" style="stroke: #A80036; stroke-width: 1.0;"/><path d="M388.4688,253.6406 Q387.8906,253.9375 387.25,254.0859 Q386.6094,254.2344 385.9063,254.2344 Q383.4063,254.2344 382.0859,252.5859 Q380.7656,250.9375 380.7656,247.8125 Q380.7656,244.6875 382.0859,243.0313 Q383.4063,241.375 385.9063,241.375 Q386.6094,241.375 387.2578,241.5313 Q387.9063,241.6875 388.4688,241.9844 L388.4688,244.7031 Q387.8438,244.125 387.25,243.8516 Q386.6563,243.5781 386.0313,243.5781 Q384.6875,243.5781 384,244.6484 Q383.3125,245.7188 383.3125,247.8125 Q383.3125,249.9063 384,250.9766 Q384.6875,252.0469 386.0313,252.0469 Q386.6563,252.0469 387.25,251.7734 Q387.8438,251.5 388.4688,250.9219 L388.4688,253.6406 Z "/><text fill="#000000" font-family="Inconsolata" font-size="12" lengthAdjust="spacingAndGlyphs" textLength="28" x="399.5" y="253.766">ReLu</text><line style="stroke: #A80036; stroke-width: 1.5;" x1="371.5" x2="429.5" y1="264" y2="264"/><line style="stroke: #A80036; stroke-width: 1.5;" x1="371.5" x2="429.5" y1="272" y2="272"/><!--class SoftMax--><rect fill="#FEFECE" filter="url(#fhdlrkw)" height="48" style="stroke: #A80036; stroke-width: 1.5;" width="81" x="254" y="232"/><ellipse cx="269" cy="248" fill="#ADD1B2" rx="11" ry="11" style="stroke: #A80036; stroke-width: 1.0;"/><path d="M271.9688,253.6406 Q271.3906,253.9375 270.75,254.0859 Q270.1094,254.2344 269.4063,254.2344 Q266.9063,254.2344 265.5859,252.5859 Q264.2656,250.9375 264.2656,247.8125 Q264.2656,244.6875 265.5859,243.0313 Q266.9063,241.375 269.4063,241.375 Q270.1094,241.375 270.7578,241.5313 Q271.4063,241.6875 271.9688,241.9844 L271.9688,244.7031 Q271.3438,244.125 270.75,243.8516 Q270.1563,243.5781 269.5313,243.5781 Q268.1875,243.5781 267.5,244.6484 Q266.8125,245.7188 266.8125,247.8125 Q266.8125,249.9063 267.5,250.9766 Q268.1875,252.0469 269.5313,252.0469 Q270.1563,252.0469 270.75,251.7734 Q271.3438,251.5 271.9688,250.9219 L271.9688,253.6406 Z "/><text fill="#000000" font-family="Inconsolata" font-size="12" lengthAdjust="spacingAndGlyphs" textLength="49" x="283" y="253.766">SoftMax</text><line style="stroke: #A80036; stroke-width: 1.5;" x1="255" x2="334" y1="264" y2="264"/><line style="stroke: #A80036; stroke-width: 1.5;" x1="255" x2="334" y1="272" y2="272"/><path d="M232.6183,32 C239.7354,32 246.8526,32 253.9697,32 " fill="none" style="stroke: #A80036; stroke-width: 1.0;"/><polygon fill="#A80036" points="219.375,32,225.375,36,231.375,32,225.375,28,219.375,32" style="stroke: #A80036; stroke-width: 1.0;"/><text fill="#000000" font-family="Inconsolata" font-size="13" lengthAdjust="spacingAndGlyphs" textLength="8" x="227.0879" y="28.783">1</text><text fill="#000000" font-family="Inconsolata" font-size="13" lengthAdjust="spacingAndGlyphs" textLength="8" x="238.5329" y="68.8269">*</text><path d="M178.5,69.6145 C178.5,84.9531 178.5,102.2402 178.5,115.8436 " fill="none" style="stroke: #A80036; stroke-width: 1.0;"/><polygon fill="#A80036" points="178.5,56.2373,174.5,62.2373,178.5,68.2373,182.5,62.2373,178.5,56.2373" style="stroke: #A80036; stroke-width: 1.0;"/><text fill="#000000" font-family="Inconsolata" font-size="13" lengthAdjust="spacingAndGlyphs" textLength="8" x="159.4" y="79.077">1</text><text fill="#000000" font-family="Inconsolata" font-size="13" lengthAdjust="spacingAndGlyphs" textLength="8" x="169.425" y="105.3523">1</text><path d="M248.587,70.556 C233.346,85.6572 216.3292,102.5178 202.8801,115.8436 " fill="none" style="stroke: #A80036; stroke-width: 1.0;"/><polygon fill="none" points="243.9042,65.3416,263.0383,56.2373,253.758,75.2867,243.9042,65.3416" style="stroke: #A80036; stroke-width: 1.0;"/><path d="M307.3591,67.7464 C316.131,83.5358 326.2139,101.6849 334.0798,115.8436 " fill="none" style="stroke: #A80036; stroke-width: 1.0;"/><polygon fill="#A80036" points="300.9652,56.2373,300.3825,63.4248,306.793,66.7271,307.3757,59.5396,300.9652,56.2373" style="stroke: #A80036; stroke-width: 1.0;"/><text fill="#000000" font-family="Inconsolata" font-size="13" lengthAdjust="spacingAndGlyphs" textLength="8" x="295.154" y="79.077">1</text><text fill="#000000" font-family="Inconsolata" font-size="13" lengthAdjust="spacingAndGlyphs" textLength="8" x="316.0231" y="105.3523">1</text><path d="M366.8826,182.4223 C374.5146,199.1264 382.9974,217.6924 389.5324,231.9955 " fill="none" style="stroke: #A80036; stroke-width: 1.0;"/><polygon fill="none" points="360.4263,185.1355,358.4816,164.0353,373.1601,179.3174,360.4263,185.1355" style="stroke: #A80036; stroke-width: 1.0;"/><path d="M328.1174,182.4223 C320.4854,199.1264 312.0026,217.6924 305.4676,231.9955 " fill="none" style="stroke: #A80036; stroke-width: 1.0;"/><polygon fill="none" points="321.8399,179.3174,336.5184,164.0353,334.5737,185.1355,321.8399,179.3174" style="stroke: #A80036; stroke-width: 1.0;"/><path d="M211.8917,173.3917 C230.6195,192.1195 253.5495,215.0495 270.4955,231.9955 " fill="none" style="stroke: #A80036; stroke-width: 1.0;"/><polygon fill="#A80036" points="202.5353,164.0353,203.9495,171.1064,211.0206,172.5206,209.6064,165.4495,202.5353,164.0353" style="stroke: #A80036; stroke-width: 1.0;"/></g></svg>