<?xml version="1.0" encoding="UTF-8" standalone="no"?><svg xmlns="http://www.w3.org/2000/svg" xmlns:xlink="http://www.w3.org/1999/xlink" contentScriptType="application/ecmascript" contentStyleType="text/css" height="477px" preserveAspectRatio="none" style="width:518px;height:477px;" version="1.1" viewBox="0 0 518 477" width="518px" zoomAndPan="magnify"><defs><filter height="300%" id="fxraqhw" width="300%" x="-1" y="-1"><feGaussianBlur result="blurOut" stdDeviation="2.0"/><feColorMatrix in="blurOut" result="blurOut2" type="matrix" values="0 0 0 0 0 0 0 0 0 0 0 0 0 0 0 0 0 0 .4 0"/><feOffset dx="4.0" dy="4.0" in="blurOut2" result="blurOut3"/><feBlend in="SourceGraphic" in2="blurOut3" mode="normal"/></filter></defs><g><!--class Network--><rect fill="#FEFECE" filter="url(#fxraqhw)" height="229.2346" style="stroke: #A80036; stroke-width: 1.5;" width="327" x="6" y="8"/><ellipse cx="140.75" cy="24" fill="#ADD1B2" rx="11" ry="11" style="stroke: #A80036; stroke-width: 1.0;"/><path d="M143.7188,29.6406 Q143.1406,29.9375 142.5,30.0859 Q141.8594,30.2344 141.1563,30.2344 Q138.6563,30.2344 137.3359,28.5859 Q136.0156,26.9375 136.0156,23.8125 Q136.0156,20.6875 137.3359,19.0313 Q138.6563,17.375 141.1563,17.375 Q141.8594,17.375 142.5078,17.5313 Q143.1563,17.6875 143.7188,17.9844 L143.7188,20.7031 Q143.0938,20.125 142.5,19.8516 Q141.9063,19.5781 141.2813,19.5781 Q139.9375,19.5781 139.25,20.6484 Q138.5625,21.7188 138.5625,23.8125 Q138.5625,25.9063 139.25,26.9766 Q139.9375,28.0469 141.2813,28.0469 Q141.9063,28.0469 142.5,27.7734 Q143.0938,27.5 143.7188,26.9219 L143.7188,29.6406 Z "/><text fill="#000000" font-family="Inconsolata" font-size="12" lengthAdjust="spacingAndGlyphs" textLength="49" x="161.25" y="29.766">Network</text><line style="stroke: #A80036; stroke-width: 1.5;" x1="7" x2="332" y1="40" y2="40"/><line style="stroke: #A80036; stroke-width: 1.5;" x1="7" x2="332" y1="48" y2="48"/><ellipse cx="17" cy="61.0514" fill="#84BE84" rx="3" ry="3" style="stroke: #038048; stroke-width: 1.0;"/><text fill="#000000" font-family="Inconsolata" font-size="11" lengthAdjust="spacingAndGlyphs" textLength="84" x="26" y="64.8369">stack(layer)</text><ellipse cx="17" cy="76.1543" fill="#84BE84" rx="3" ry="3" style="stroke: #038048; stroke-width: 1.0;"/><text fill="#000000" font-family="Inconsolata" font-size="11" lengthAdjust="spacingAndGlyphs" textLength="140" x="26" y="79.9398">output(output_layer)</text><ellipse cx="17" cy="98.8087" fill="#84BE84" rx="3" ry="3" style="stroke: #038048; stroke-width: 1.0;"/><text fill="#000000" font-family="Inconsolata" font-size="11" lengthAdjust="spacingAndGlyphs" textLength="245" x="26" y="95.0427">train(x_train, y_train, num_epochs,</text><text fill="#000000" font-family="Inconsolata" font-size="11" lengthAdjust="spacingAndGlyphs" textLength="98" x="68" y="110.1456">learning_rate)</text><ellipse cx="17" cy="121.463" fill="#84BE84" rx="3" ry="3" style="stroke: #038048; stroke-width: 1.0;"/><text fill="#000000" font-family="Inconsolata" font-size="11" lengthAdjust="spacingAndGlyphs" textLength="140" x="26" y="125.2485">test(x_test, y_test)</text><ellipse cx="17" cy="144.1173" fill="#84BE84" rx="3" ry="3" style="stroke: #038048; stroke-width: 1.0;"/><text fill="#000000" font-family="Inconsolata" font-size="11" lengthAdjust="spacingAndGlyphs" textLength="301" x="26" y="140.3513">benchmark(x_train, y_train, x_test, y_test,</text><text fill="#000000" font-family="Inconsolata" font-size="11" lengthAdjust="spacingAndGlyphs" textLength="182" x="96" y="155.4542">num_epochs, learning_rate)</text><rect fill="#F24D5C" height="6" style="stroke: #C82930; stroke-width: 1.0;" width="6" x="14" y="163.7717"/><text fill="#000000" font-family="Inconsolata" font-size="11" lengthAdjust="spacingAndGlyphs" textLength="210" x="26" y="170.5571">batcher(batch_size, n_samples)</text><rect fill="#F24D5C" height="6" style="stroke: #C82930; stroke-width: 1.0;" width="6" x="14" y="178.8745"/><text fill="#000000" font-family="Inconsolata" font-size="11" lengthAdjust="spacingAndGlyphs" textLength="266" x="26" y="185.66">prepropagation_check(x_array, y_array)</text><rect fill="#F24D5C" height="6" style="stroke: #C82930; stroke-width: 1.0;" width="6" x="14" y="193.9774"/><text fill="#000000" font-family="Inconsolata" font-size="11" lengthAdjust="spacingAndGlyphs" textLength="189" x="26" y="200.7629">forward_propagation(inputs)</text><rect fill="#F24D5C" height="6" style="stroke: #C82930; stroke-width: 1.0;" width="6" x="14" y="209.0803"/><text fill="#000000" font-family="Inconsolata" font-size="11" lengthAdjust="spacingAndGlyphs" textLength="133" x="26" y="215.8658">back_propagation(y)</text><rect fill="#F24D5C" height="6" style="stroke: #C82930; stroke-width: 1.0;" width="6" x="14" y="224.1832"/><text fill="#000000" font-family="Inconsolata" font-size="11" lengthAdjust="spacingAndGlyphs" textLength="161" x="26" y="230.9687">optimize(learning_rate)</text><!--class Layer--><rect fill="#FEFECE" filter="url(#fxraqhw)" height="48" style="stroke: #A80036; stroke-width: 1.5;" width="67" x="368" y="98.5"/><ellipse cx="383" cy="114.5" fill="#ADD1B2" rx="11" ry="11" style="stroke: #A80036; stroke-width: 1.0;"/><path d="M385.9688,120.1406 Q385.3906,120.4375 384.75,120.5859 Q384.1094,120.7344 383.4063,120.7344 Q380.9063,120.7344 379.5859,119.0859 Q378.2656,117.4375 378.2656,114.3125 Q378.2656,111.1875 379.5859,109.5313 Q380.9063,107.875 383.4063,107.875 Q384.1094,107.875 384.7578,108.0313 Q385.4063,108.1875 385.9688,108.4844 L385.9688,111.2031 Q385.3438,110.625 384.75,110.3516 Q384.1563,110.0781 383.5313,110.0781 Q382.1875,110.0781 381.5,111.1484 Q380.8125,112.2188 380.8125,114.3125 Q380.8125,116.4063 381.5,117.4766 Q382.1875,118.5469 383.5313,118.5469 Q384.1563,118.5469 384.75,118.2734 Q385.3438,118 385.9688,117.4219 L385.9688,120.1406 Z "/><text fill="#000000" font-family="Inconsolata" font-size="12" lengthAdjust="spacingAndGlyphs" textLength="35" x="397" y="120.266">Layer</text><line style="stroke: #A80036; stroke-width: 1.5;" x1="369" x2="434" y1="130.5" y2="130.5"/><line style="stroke: #A80036; stroke-width: 1.5;" x1="369" x2="434" y1="138.5" y2="138.5"/><!--class OutputLayer--><rect fill="#FEFECE" filter="url(#fxraqhw)" height="48" style="stroke: #A80036; stroke-width: 1.5;" width="109" x="143" y="297"/><ellipse cx="158" cy="313" fill="#ADD1B2" rx="11" ry="11" style="stroke: #A80036; stroke-width: 1.0;"/><path d="M160.9688,318.6406 Q160.3906,318.9375 159.75,319.0859 Q159.1094,319.2344 158.4063,319.2344 Q155.9063,319.2344 154.5859,317.5859 Q153.2656,315.9375 153.2656,312.8125 Q153.2656,309.6875 154.5859,308.0313 Q155.9063,306.375 158.4063,306.375 Q159.1094,306.375 159.7578,306.5313 Q160.4063,306.6875 160.9688,306.9844 L160.9688,309.7031 Q160.3438,309.125 159.75,308.8516 Q159.1563,308.5781 158.5313,308.5781 Q157.1875,308.5781 156.5,309.6484 Q155.8125,310.7188 155.8125,312.8125 Q155.8125,314.9063 156.5,315.9766 Q157.1875,317.0469 158.5313,317.0469 Q159.1563,317.0469 159.75,316.7734 Q160.3438,316.5 160.9688,315.9219 L160.9688,318.6406 Z "/><text fill="#000000" font-family="Inconsolata" font-size="12" lengthAdjust="spacingAndGlyphs" textLength="77" x="172" y="318.766">OutputLayer</text><line style="stroke: #A80036; stroke-width: 1.5;" x1="144" x2="251" y1="329" y2="329"/><line style="stroke: #A80036; stroke-width: 1.5;" x1="144" x2="251" y1="337" y2="337"/><polygon fill="#FBFB77" filter="url(#fxraqhw)" points="85,405,85,468.547,298,468.547,298,415,288,405,85,405" style="stroke: #A80036; stroke-width: 1.0;"/><polygon fill="#FBFB77" points="85,405,85,468.547,298,468.547,298,415,288,405,197.1741,405,196.2568,345.0353,189.1741,405,85,405" style="stroke: #A80036; stroke-width: 1.0;"/><line style="stroke: #A80036; stroke-width: 1.0;" x1="288" x2="288" y1="405" y2="415"/><line style="stroke: #A80036; stroke-width: 1.0;" x1="298" x2="288" y1="415" y2="415"/><text fill="#000000" font-family="Inconsolata" font-size="13" lengthAdjust="spacingAndGlyphs" textLength="176" x="91" y="425.171">Embeds CrossEntropy as</text><text fill="#000000" font-family="Inconsolata" font-size="13" lengthAdjust="spacingAndGlyphs" textLength="192" x="91" y="443.02">a cost function for now.</text><text fill="#000000" font-family="Inconsolata" font-size="13" lengthAdjust="spacingAndGlyphs" textLength="112" x="91" y="460.869">To be improved</text><!--class ActivationFunction--><rect fill="#FEFECE" filter="url(#fxraqhw)" height="48" style="stroke: #A80036; stroke-width: 1.5;" width="158" x="322.5" y="297"/><ellipse cx="337.5" cy="313" fill="#ADD1B2" rx="11" ry="11" style="stroke: #A80036; stroke-width: 1.0;"/><path d="M340.4688,318.6406 Q339.8906,318.9375 339.25,319.0859 Q338.6094,319.2344 337.9063,319.2344 Q335.4063,319.2344 334.0859,317.5859 Q332.7656,315.9375 332.7656,312.8125 Q332.7656,309.6875 334.0859,308.0313 Q335.4063,306.375 337.9063,306.375 Q338.6094,306.375 339.2578,306.5313 Q339.9063,306.6875 340.4688,306.9844 L340.4688,309.7031 Q339.8438,309.125 339.25,308.8516 Q338.6563,308.5781 338.0313,308.5781 Q336.6875,308.5781 336,309.6484 Q335.3125,310.7188 335.3125,312.8125 Q335.3125,314.9063 336,315.9766 Q336.6875,317.0469 338.0313,317.0469 Q338.6563,317.0469 339.25,316.7734 Q339.8438,316.5 340.4688,315.9219 L340.4688,318.6406 Z "/><text fill="#000000" font-family="Inconsolata" font-size="12" lengthAdjust="spacingAndGlyphs" textLength="126" x="351.5" y="318.766">ActivationFunction</text><line style="stroke: #A80036; stroke-width: 1.5;" x1="323.5" x2="479.5" y1="329" y2="329"/><line style="stroke: #A80036; stroke-width: 1.5;" x1="323.5" x2="479.5" y1="337" y2="337"/><!--class ReLu--><rect fill="#FEFECE" filter="url(#fxraqhw)" height="48" style="stroke: #A80036; stroke-width: 1.5;" width="60" x="449.5" y="413"/><ellipse cx="464.5" cy="429" fill="#ADD1B2" rx="11" ry="11" style="stroke: #A80036; stroke-width: 1.0;"/><path d="M467.4688,434.6406 Q466.8906,434.9375 466.25,435.0859 Q465.6094,435.2344 464.9063,435.2344 Q462.4063,435.2344 461.0859,433.5859 Q459.7656,431.9375 459.7656,428.8125 Q459.7656,425.6875 461.0859,424.0313 Q462.4063,422.375 464.9063,422.375 Q465.6094,422.375 466.2578,422.5313 Q466.9063,422.6875 467.4688,422.9844 L467.4688,425.7031 Q466.8438,425.125 466.25,424.8516 Q465.6563,424.5781 465.0313,424.5781 Q463.6875,424.5781 463,425.6484 Q462.3125,426.7188 462.3125,428.8125 Q462.3125,430.9063 463,431.9766 Q463.6875,433.0469 465.0313,433.0469 Q465.6563,433.0469 466.25,432.7734 Q466.8438,432.5 467.4688,431.9219 L467.4688,434.6406 Z "/><text fill="#000000" font-family="Inconsolata" font-size="12" lengthAdjust="spacingAndGlyphs" textLength="28" x="478.5" y="434.766">ReLu</text><line style="stroke: #A80036; stroke-width: 1.5;" x1="450.5" x2="508.5" y1="445" y2="445"/><line style="stroke: #A80036; stroke-width: 1.5;" x1="450.5" x2="508.5" y1="453" y2="453"/><!--class SoftMax--><rect fill="#FEFECE" filter="url(#fxraqhw)" height="48" style="stroke: #A80036; stroke-width: 1.5;" width="81" x="333" y="413"/><ellipse cx="348" cy="429" fill="#ADD1B2" rx="11" ry="11" style="stroke: #A80036; stroke-width: 1.0;"/><path d="M350.9688,434.6406 Q350.3906,434.9375 349.75,435.0859 Q349.1094,435.2344 348.4063,435.2344 Q345.9063,435.2344 344.5859,433.5859 Q343.2656,431.9375 343.2656,428.8125 Q343.2656,425.6875 344.5859,424.0313 Q345.9063,422.375 348.4063,422.375 Q349.1094,422.375 349.7578,422.5313 Q350.4063,422.6875 350.9688,422.9844 L350.9688,425.7031 Q350.3438,425.125 349.75,424.8516 Q349.1563,424.5781 348.5313,424.5781 Q347.1875,424.5781 346.5,425.6484 Q345.8125,426.7188 345.8125,428.8125 Q345.8125,430.9063 346.5,431.9766 Q347.1875,433.0469 348.5313,433.0469 Q349.1563,433.0469 349.75,432.7734 Q350.3438,432.5 350.9688,431.9219 L350.9688,434.6406 Z "/><text fill="#000000" font-family="Inconsolata" font-size="12" lengthAdjust="spacingAndGlyphs" textLength="49" x="362" y="434.766">SoftMax</text><line style="stroke: #A80036; stroke-width: 1.5;" x1="334" x2="413" y1="445" y2="445"/><line style="stroke: #A80036; stroke-width: 1.5;" x1="334" x2="413" y1="453" y2="453"/><path d="M346.1077,122.5 C353.3463,122.5 360.585,122.5 367.8236,122.5 " fill="none" style="stroke: #A80036; stroke-width: 1.0;"/><polygon fill="#A80036" points="333.0781,122.5,339.0781,126.5,345.0781,122.5,339.0781,118.5,333.0781,122.5" style="stroke: #A80036; stroke-width: 1.0;"/><text fill="#000000" font-family="Inconsolata" font-size="13" lengthAdjust="spacingAndGlyphs" textLength="8" x="341.1952" y="120.2742">1</text><text fill="#000000" font-family="Inconsolata" font-size="13" lengthAdjust="spacingAndGlyphs" textLength="8" x="352.6457" y="150.9278">*</text><path d="M187.4823,249.9818 C190.0023,267.8465 192.3345,284.3802 194.1134,296.9914 " fill="none" style="stroke: #A80036; stroke-width: 1.0;"/><polygon fill="#A80036" points="185.6661,237.1058,182.5434,243.6057,187.3423,248.9882,190.465,242.4883,185.6661,237.1058" style="stroke: #A80036; stroke-width: 1.0;"/><text fill="#000000" font-family="Inconsolata" font-size="13" lengthAdjust="spacingAndGlyphs" textLength="8" x="175.5273" y="260.5686">1</text><text fill="#000000" font-family="Inconsolata" font-size="13" lengthAdjust="spacingAndGlyphs" textLength="8" x="184.0359" y="286.1388">1</text><path d="M389.657,165.7971 C381.5976,189.0229 368.9831,216.9143 350.5,237 C323.62,266.2106 284.1861,287.5219 252.085,301.3694 " fill="none" style="stroke: #A80036; stroke-width: 1.0;"/><polygon fill="none" points="383.0395,163.5055,395.7078,146.5198,396.397,167.6982,383.0395,163.5055" style="stroke: #A80036; stroke-width: 1.0;"/><path d="M401.5,160.0252 C401.5,200.1712 401.5,262.6615 401.5,296.7717 " fill="none" style="stroke: #A80036; stroke-width: 1.0;"/><polygon fill="#A80036" points="401.5,146.84,397.5,152.84,401.5,158.84,405.5,152.84,401.5,146.84" style="stroke: #A80036; stroke-width: 1.0;"/><text fill="#000000" font-family="Inconsolata" font-size="13" lengthAdjust="spacingAndGlyphs" textLength="8" x="392.575" y="169.7034">1</text><text fill="#000000" font-family="Inconsolata" font-size="13" lengthAdjust="spacingAndGlyphs" textLength="8" x="387.05" y="286.2611">1</text><path d="M428.9307,361.7943 C440.4402,378.911 453.4278,398.226 463.3591,412.9955 " fill="none" style="stroke: #A80036; stroke-width: 1.0;"/><polygon fill="none" points="423.0127,365.5381,417.6617,345.0353,434.6305,357.7261,423.0127,365.5381" style="stroke: #A80036; stroke-width: 1.0;"/><path d="M390.9966,364.5142 C387.0338,380.9316 382.6716,399.0034 379.2942,412.9955 " fill="none" style="stroke: #A80036; stroke-width: 1.0;"/><polygon fill="none" points="384.2009,362.8344,395.6984,345.0353,397.8101,366.1194,384.2009,362.8344" style="stroke: #A80036; stroke-width: 1.0;"/><path d="M245.0616,352.3474 C274.0122,371.4285 310.4246,395.4276 337.0794,412.9955 " fill="none" style="stroke: #A80036; stroke-width: 1.0;"/><polygon fill="#A80036" points="233.9673,345.0353,236.7758,351.677,243.9868,351.6391,241.1783,344.9973,233.9673,345.0353" style="stroke: #A80036; stroke-width: 1.0;"/></g></svg>