<?xml version="1.0" encoding="UTF-8" standalone="no"?><svg xmlns="http://www.w3.org/2000/svg" xmlns:xlink="http://www.w3.org/1999/xlink" contentScriptType="application/ecmascript" contentStyleType="text/css" height="492px" preserveAspectRatio="none" style="width:641px;height:492px;" version="1.1" viewBox="0 0 641 492" width="641px" zoomAndPan="magnify"><defs><filter height="300%" id="frq97zc" width="300%" x="-1" y="-1"><feGaussianBlur result="blurOut" stdDeviation="2.0"/><feColorMatrix in="blurOut" result="blurOut2" type="matrix" values="0 0 0 0 0 0 0 0 0 0 0 0 0 0 0 0 0 0 .4 0"/><feOffset dx="4.0" dy="4.0" in="blurOut2" result="blurOut3"/><feBlend in="SourceGraphic" in2="blurOut3" mode="normal"/></filter></defs><g><!--class Network--><rect fill="#FEFECE" filter="url(#frq97zc)" height="229.2346" style="stroke: #A80036; stroke-width: 1.5;" width="327" x="6" y="8"/><ellipse cx="140.75" cy="24" fill="#ADD1B2" rx="11" ry="11" style="stroke: #A80036; stroke-width: 1.0;"/><path d="M143.7188,29.6406 Q143.1406,29.9375 142.5,30.0859 Q141.8594,30.2344 141.1563,30.2344 Q138.6563,30.2344 137.3359,28.5859 Q136.0156,26.9375 136.0156,23.8125 Q136.0156,20.6875 137.3359,19.0313 Q138.6563,17.375 141.1563,17.375 Q141.8594,17.375 142.5078,17.5313 Q143.1563,17.6875 143.7188,17.9844 L143.7188,20.7031 Q143.0938,20.125 142.5,19.8516 Q141.9063,19.5781 141.2813,19.5781 Q139.9375,19.5781 139.25,20.6484 Q138.5625,21.7188 138.5625,23.8125 Q138.5625,25.9063 139.25,26.9766 Q139.9375,28.0469 141.2813,28.0469 Q141.9063,28.0469 142.5,27.7734 Q143.0938,27.5 143.7188,26.9219 L143.7188,29.6406 Z "/><text fill="#000000" font-family="Inconsolata" font-size="12" lengthAdjust="spacingAndGlyphs" textLength="49" x="161.25" y="29.766">Network</text><line style="stroke: #A80036; stroke-width: 1.5;" x1="7" x2="332" y1="40" y2="40"/><line style="stroke: #A80036; stroke-width: 1.5;" x1="7" x2="332" y1="48" y2="48"/><ellipse cx="17" cy="61.0514" fill="#84BE84" rx="3" ry="3" style="stroke: #038048; stroke-width: 1.0;"/><text fill="#000000" font-family="Inconsolata" font-size="11" lengthAdjust="spacingAndGlyphs" textLength="84" x="26" y="64.8369">stack(layer)</text><ellipse cx="17" cy="76.1543" fill="#84BE84" rx="3" ry="3" style="stroke: #038048; stroke-width: 1.0;"/><text fill="#000000" font-family="Inconsolata" font-size="11" lengthAdjust="spacingAndGlyphs" textLength="140" x="26" y="79.9398">output(output_layer)</text><ellipse cx="17" cy="98.8087" fill="#84BE84" rx="3" ry="3" style="stroke: #038048; stroke-width: 1.0;"/><text fill="#000000" font-family="Inconsolata" font-size="11" lengthAdjust="spacingAndGlyphs" textLength="245" x="26" y="95.0427">train(x_train, y_train, num_epochs,</text><text fill="#000000" font-family="Inconsolata" font-size="11" lengthAdjust="spacingAndGlyphs" textLength="98" x="68" y="110.1456">learning_rate)</text><ellipse cx="17" cy="121.463" fill="#84BE84" rx="3" ry="3" style="stroke: #038048; stroke-width: 1.0;"/><text fill="#000000" font-family="Inconsolata" font-size="11" lengthAdjust="spacingAndGlyphs" textLength="140" x="26" y="125.2485">test(x_test, y_test)</text><ellipse cx="17" cy="144.1173" fill="#84BE84" rx="3" ry="3" style="stroke: #038048; stroke-width: 1.0;"/><text fill="#000000" font-family="Inconsolata" font-size="11" lengthAdjust="spacingAndGlyphs" textLength="301" x="26" y="140.3513">benchmark(x_train, y_train, x_test, y_test,</text><text fill="#000000" font-family="Inconsolata" font-size="11" lengthAdjust="spacingAndGlyphs" textLength="182" x="96" y="155.4542">num_epochs, learning_rate)</text><rect fill="#F24D5C" height="6" style="stroke: #C82930; stroke-width: 1.0;" width="6" x="14" y="163.7717"/><text fill="#000000" font-family="Inconsolata" font-size="11" lengthAdjust="spacingAndGlyphs" textLength="210" x="26" y="170.5571">batcher(batch_size, n_samples)</text><rect fill="#F24D5C" height="6" style="stroke: #C82930; stroke-width: 1.0;" width="6" x="14" y="178.8745"/><text fill="#000000" font-family="Inconsolata" font-size="11" lengthAdjust="spacingAndGlyphs" textLength="266" x="26" y="185.66">prepropagation_check(x_array, y_array)</text><rect fill="#F24D5C" height="6" style="stroke: #C82930; stroke-width: 1.0;" width="6" x="14" y="193.9774"/><text fill="#000000" font-family="Inconsolata" font-size="11" lengthAdjust="spacingAndGlyphs" textLength="189" x="26" y="200.7629">forward_propagation(inputs)</text><rect fill="#F24D5C" height="6" style="stroke: #C82930; stroke-width: 1.0;" width="6" x="14" y="209.0803"/><text fill="#000000" font-family="Inconsolata" font-size="11" lengthAdjust="spacingAndGlyphs" textLength="133" x="26" y="215.8658">back_propagation(y)</text><rect fill="#F24D5C" height="6" style="stroke: #C82930; stroke-width: 1.0;" width="6" x="14" y="224.1832"/><text fill="#000000" font-family="Inconsolata" font-size="11" lengthAdjust="spacingAndGlyphs" textLength="161" x="26" y="230.9687">optimize(learning_rate)</text><!--class Layer--><rect fill="#FEFECE" filter="url(#frq97zc)" height="153.7202" style="stroke: #A80036; stroke-width: 1.5;" width="264" x="368.5" y="45.5"/><ellipse cx="478.75" cy="61.5" fill="#ADD1B2" rx="11" ry="11" style="stroke: #A80036; stroke-width: 1.0;"/><path d="M481.7188,67.1406 Q481.1406,67.4375 480.5,67.5859 Q479.8594,67.7344 479.1563,67.7344 Q476.6563,67.7344 475.3359,66.0859 Q474.0156,64.4375 474.0156,61.3125 Q474.0156,58.1875 475.3359,56.5313 Q476.6563,54.875 479.1563,54.875 Q479.8594,54.875 480.5078,55.0313 Q481.1563,55.1875 481.7188,55.4844 L481.7188,58.2031 Q481.0938,57.625 480.5,57.3516 Q479.9063,57.0781 479.2813,57.0781 Q477.9375,57.0781 477.25,58.1484 Q476.5625,59.2188 476.5625,61.3125 Q476.5625,63.4063 477.25,64.4766 Q477.9375,65.5469 479.2813,65.5469 Q479.9063,65.5469 480.5,65.2734 Q481.0938,65 481.7188,64.4219 L481.7188,67.1406 Z "/><text fill="#000000" font-family="Inconsolata" font-size="12" lengthAdjust="spacingAndGlyphs" textLength="35" x="499.25" y="67.266">Layer</text><line style="stroke: #A80036; stroke-width: 1.5;" x1="369.5" x2="631.5" y1="77.5" y2="77.5"/><line style="stroke: #A80036; stroke-width: 1.5;" x1="369.5" x2="631.5" y1="85.5" y2="85.5"/><ellipse cx="379.5" cy="98.5514" fill="#84BE84" rx="3" ry="3" style="stroke: #038048; stroke-width: 1.0;"/><text fill="#000000" font-family="Inconsolata" font-size="11" lengthAdjust="spacingAndGlyphs" textLength="238" x="388.5" y="102.3369">forward_propagate(inputs, persist)</text><ellipse cx="379.5" cy="113.6543" fill="#84BE84" rx="3" ry="3" style="stroke: #038048; stroke-width: 1.0;"/><text fill="#000000" font-family="Inconsolata" font-size="11" lengthAdjust="spacingAndGlyphs" textLength="217" x="388.5" y="117.4398">initialise(previous_layer_size)</text><ellipse cx="379.5" cy="128.7572" fill="#84BE84" rx="3" ry="3" style="stroke: #038048; stroke-width: 1.0;"/><text fill="#000000" font-family="Inconsolata" font-size="11" lengthAdjust="spacingAndGlyphs" textLength="238" x="388.5" y="132.5427">back_propagate(W_T_lp1, delta_lp1)</text><ellipse cx="379.5" cy="143.8601" fill="#84BE84" rx="3" ry="3" style="stroke: #038048; stroke-width: 1.0;"/><text fill="#000000" font-family="Inconsolata" font-size="11" lengthAdjust="spacingAndGlyphs" textLength="63" x="388.5" y="147.6456">get_d_W()</text><ellipse cx="379.5" cy="158.963" fill="#84BE84" rx="3" ry="3" style="stroke: #038048; stroke-width: 1.0;"/><text fill="#000000" font-family="Inconsolata" font-size="11" lengthAdjust="spacingAndGlyphs" textLength="63" x="388.5" y="162.7485">get_d_b()</text><ellipse cx="379.5" cy="174.0659" fill="#84BE84" rx="3" ry="3" style="stroke: #038048; stroke-width: 1.0;"/><text fill="#000000" font-family="Inconsolata" font-size="11" lengthAdjust="spacingAndGlyphs" textLength="161" x="388.5" y="177.8513">optimize(learning_rate)</text><ellipse cx="379.5" cy="189.1688" fill="#84BE84" rx="3" ry="3" style="stroke: #038048; stroke-width: 1.0;"/><text fill="#000000" font-family="Inconsolata" font-size="11" lengthAdjust="spacingAndGlyphs" textLength="140" x="388.5" y="192.9542">get_num_parameters()</text><!--class OutputLayer--><rect fill="#FEFECE" filter="url(#frq97zc)" height="63.1029" style="stroke: #A80036; stroke-width: 1.5;" width="124" x="206.5" y="297"/><ellipse cx="228.25" cy="313" fill="#ADD1B2" rx="11" ry="11" style="stroke: #A80036; stroke-width: 1.0;"/><path d="M231.2188,318.6406 Q230.6406,318.9375 230,319.0859 Q229.3594,319.2344 228.6563,319.2344 Q226.1563,319.2344 224.8359,317.5859 Q223.5156,315.9375 223.5156,312.8125 Q223.5156,309.6875 224.8359,308.0313 Q226.1563,306.375 228.6563,306.375 Q229.3594,306.375 230.0078,306.5313 Q230.6563,306.6875 231.2188,306.9844 L231.2188,309.7031 Q230.5938,309.125 230,308.8516 Q229.4063,308.5781 228.7813,308.5781 Q227.4375,308.5781 226.75,309.6484 Q226.0625,310.7188 226.0625,312.8125 Q226.0625,314.9063 226.75,315.9766 Q227.4375,317.0469 228.7813,317.0469 Q229.4063,317.0469 230,316.7734 Q230.5938,316.5 231.2188,315.9219 L231.2188,318.6406 Z "/><text fill="#000000" font-family="Inconsolata" font-size="12" lengthAdjust="spacingAndGlyphs" textLength="77" x="243.75" y="318.766">OutputLayer</text><line style="stroke: #A80036; stroke-width: 1.5;" x1="207.5" x2="329.5" y1="329" y2="329"/><line style="stroke: #A80036; stroke-width: 1.5;" x1="207.5" x2="329.5" y1="337" y2="337"/><ellipse cx="217.5" cy="350.0514" fill="#84BE84" rx="3" ry="3" style="stroke: #038048; stroke-width: 1.0;"/><text fill="#000000" font-family="Inconsolata" font-size="11" lengthAdjust="spacingAndGlyphs" textLength="98" x="226.5" y="353.8369">cost(y, y_hat)</text><polygon fill="#FBFB77" filter="url(#frq97zc)" points="159,420,159,483.547,372,483.547,372,430,362,420,159,420" style="stroke: #A80036; stroke-width: 1.0;"/><polygon fill="#FBFB77" points="159,420,159,483.547,372,483.547,372,430,362,420,270.2804,420,267.7274,360.3043,262.2804,420,159,420" style="stroke: #A80036; stroke-width: 1.0;"/><line style="stroke: #A80036; stroke-width: 1.0;" x1="362" x2="362" y1="420" y2="430"/><line style="stroke: #A80036; stroke-width: 1.0;" x1="372" x2="362" y1="430" y2="430"/><text fill="#000000" font-family="Inconsolata" font-size="13" lengthAdjust="spacingAndGlyphs" textLength="176" x="165" y="440.171">Embeds CrossEntropy as</text><text fill="#000000" font-family="Inconsolata" font-size="13" lengthAdjust="spacingAndGlyphs" textLength="192" x="165" y="458.02">a cost function for now.</text><text fill="#000000" font-family="Inconsolata" font-size="13" lengthAdjust="spacingAndGlyphs" textLength="112" x="165" y="475.869">To be improved</text><!--class ActivationFunction--><rect fill="#FEFECE" filter="url(#frq97zc)" height="48" style="stroke: #A80036; stroke-width: 1.5;" width="158" x="421.5" y="304.5"/><ellipse cx="436.5" cy="320.5" fill="#ADD1B2" rx="11" ry="11" style="stroke: #A80036; stroke-width: 1.0;"/><path d="M439.4688,326.1406 Q438.8906,326.4375 438.25,326.5859 Q437.6094,326.7344 436.9063,326.7344 Q434.4063,326.7344 433.0859,325.0859 Q431.7656,323.4375 431.7656,320.3125 Q431.7656,317.1875 433.0859,315.5313 Q434.4063,313.875 436.9063,313.875 Q437.6094,313.875 438.2578,314.0313 Q438.9063,314.1875 439.4688,314.4844 L439.4688,317.2031 Q438.8438,316.625 438.25,316.3516 Q437.6563,316.0781 437.0313,316.0781 Q435.6875,316.0781 435,317.1484 Q434.3125,318.2188 434.3125,320.3125 Q434.3125,322.4063 435,323.4766 Q435.6875,324.5469 437.0313,324.5469 Q437.6563,324.5469 438.25,324.2734 Q438.8438,324 439.4688,323.4219 L439.4688,326.1406 Z "/><text fill="#000000" font-family="Inconsolata" font-size="12" lengthAdjust="spacingAndGlyphs" textLength="126" x="450.5" y="326.266">ActivationFunction</text><line style="stroke: #A80036; stroke-width: 1.5;" x1="422.5" x2="578.5" y1="336.5" y2="336.5"/><line style="stroke: #A80036; stroke-width: 1.5;" x1="422.5" x2="578.5" y1="344.5" y2="344.5"/><!--class ReLu--><rect fill="#FEFECE" filter="url(#frq97zc)" height="48" style="stroke: #A80036; stroke-width: 1.5;" width="60" x="523.5" y="428"/><ellipse cx="538.5" cy="444" fill="#ADD1B2" rx="11" ry="11" style="stroke: #A80036; stroke-width: 1.0;"/><path d="M541.4688,449.6406 Q540.8906,449.9375 540.25,450.0859 Q539.6094,450.2344 538.9063,450.2344 Q536.4063,450.2344 535.0859,448.5859 Q533.7656,446.9375 533.7656,443.8125 Q533.7656,440.6875 535.0859,439.0313 Q536.4063,437.375 538.9063,437.375 Q539.6094,437.375 540.2578,437.5313 Q540.9063,437.6875 541.4688,437.9844 L541.4688,440.7031 Q540.8438,440.125 540.25,439.8516 Q539.6563,439.5781 539.0313,439.5781 Q537.6875,439.5781 537,440.6484 Q536.3125,441.7188 536.3125,443.8125 Q536.3125,445.9063 537,446.9766 Q537.6875,448.0469 539.0313,448.0469 Q539.6563,448.0469 540.25,447.7734 Q540.8438,447.5 541.4688,446.9219 L541.4688,449.6406 Z "/><text fill="#000000" font-family="Inconsolata" font-size="12" lengthAdjust="spacingAndGlyphs" textLength="28" x="552.5" y="449.766">ReLu</text><line style="stroke: #A80036; stroke-width: 1.5;" x1="524.5" x2="582.5" y1="460" y2="460"/><line style="stroke: #A80036; stroke-width: 1.5;" x1="524.5" x2="582.5" y1="468" y2="468"/><!--class SoftMax--><rect fill="#FEFECE" filter="url(#frq97zc)" height="48" style="stroke: #A80036; stroke-width: 1.5;" width="81" x="407" y="428"/><ellipse cx="422" cy="444" fill="#ADD1B2" rx="11" ry="11" style="stroke: #A80036; stroke-width: 1.0;"/><path d="M424.9688,449.6406 Q424.3906,449.9375 423.75,450.0859 Q423.1094,450.2344 422.4063,450.2344 Q419.9063,450.2344 418.5859,448.5859 Q417.2656,446.9375 417.2656,443.8125 Q417.2656,440.6875 418.5859,439.0313 Q419.9063,437.375 422.4063,437.375 Q423.1094,437.375 423.7578,437.5313 Q424.4063,437.6875 424.9688,437.9844 L424.9688,440.7031 Q424.3438,440.125 423.75,439.8516 Q423.1563,439.5781 422.5313,439.5781 Q421.1875,439.5781 420.5,440.6484 Q419.8125,441.7188 419.8125,443.8125 Q419.8125,445.9063 420.5,446.9766 Q421.1875,448.0469 422.5313,448.0469 Q423.1563,448.0469 423.75,447.7734 Q424.3438,447.5 424.9688,446.9219 L424.9688,449.6406 Z "/><text fill="#000000" font-family="Inconsolata" font-size="12" lengthAdjust="spacingAndGlyphs" textLength="49" x="436" y="449.766">SoftMax</text><line style="stroke: #A80036; stroke-width: 1.5;" x1="408" x2="487" y1="460" y2="460"/><line style="stroke: #A80036; stroke-width: 1.5;" x1="408" x2="487" y1="468" y2="468"/><path d="M346.3053,122.5 C353.6634,122.5 361.0216,122.5 368.3798,122.5 " fill="none" style="stroke: #A80036; stroke-width: 1.0;"/><polygon fill="#A80036" points="333.0605,122.5,339.0605,126.5,345.0605,122.5,339.0605,118.5,333.0605,122.5" style="stroke: #A80036; stroke-width: 1.0;"/><text fill="#000000" font-family="Inconsolata" font-size="13" lengthAdjust="spacingAndGlyphs" textLength="8" x="341.1767" y="120.2742">1</text><text fill="#000000" font-family="Inconsolata" font-size="13" lengthAdjust="spacingAndGlyphs" textLength="8" x="353.2556" y="141.9578">*</text><path d="M230.296,249.0048 C238.8097,266.7202 246.8525,283.4557 253.3424,296.9598 " fill="none" style="stroke: #A80036; stroke-width: 1.0;"/><polygon fill="#A80036" points="224.6448,237.2458,223.6384,244.3863,229.8427,248.0616,230.849,240.9211,224.6448,237.2458" style="stroke: #A80036; stroke-width: 1.0;"/><text fill="#000000" font-family="Inconsolata" font-size="13" lengthAdjust="spacingAndGlyphs" textLength="8" x="217.1025" y="260.3319">1</text><text fill="#000000" font-family="Inconsolata" font-size="13" lengthAdjust="spacingAndGlyphs" textLength="8" x="241.1517" y="286.4536">1</text><path d="M398.1469,213.3825 C364.5087,243.2509 329.318,274.4978 304.102,296.8879 " fill="none" style="stroke: #A80036; stroke-width: 1.0;"/><polygon fill="none" points="393.8486,207.8378,413.4517,199.7929,403.1441,218.3066,393.8486,207.8378" style="stroke: #A80036; stroke-width: 1.0;"/><path d="M500.5,212.9584 C500.5,246.3393 500.5,281.504 500.5,304.146 " fill="none" style="stroke: #A80036; stroke-width: 1.0;"/><polygon fill="#A80036" points="500.5,199.7929,496.5,205.7929,500.5,211.7929,504.5,205.7929,500.5,199.7929" style="stroke: #A80036; stroke-width: 1.0;"/><text fill="#000000" font-family="Inconsolata" font-size="13" lengthAdjust="spacingAndGlyphs" textLength="8" x="492.1563" y="222.3852">1</text><text fill="#000000" font-family="Inconsolata" font-size="13" lengthAdjust="spacingAndGlyphs" textLength="8" x="486.35" y="294.007">1</text><path d="M518.7823,371.1012 C526.9424,390.1158 536.2562,411.8188 543.1813,427.9556 " fill="none" style="stroke: #A80036; stroke-width: 1.0;"/><polygon fill="none" points="512.2995,373.7449,510.8448,352.6052,525.1648,368.2237,512.2995,373.7449" style="stroke: #A80036; stroke-width: 1.0;"/><path d="M482.2177,371.1012 C474.0576,390.1158 464.7438,411.8188 457.8187,427.9556 " fill="none" style="stroke: #A80036; stroke-width: 1.0;"/><polygon fill="none" points="475.8352,368.2237,490.1552,352.6052,488.7005,373.7449,475.8352,368.2237" style="stroke: #A80036; stroke-width: 1.0;"/><path d="M325.6741,367.947 C354.2467,387.6604 387.8971,410.8773 412.5837,427.9097 " fill="none" style="stroke: #A80036; stroke-width: 1.0;"/><polygon fill="#A80036" points="314.5969,360.3043,317.2639,367.0041,324.4741,367.119,321.8071,360.4192,314.5969,360.3043" style="stroke: #A80036; stroke-width: 1.0;"/></g></svg>