<?xml version="1.0" encoding="UTF-8" standalone="no"?><svg xmlns="http://www.w3.org/2000/svg" xmlns:xlink="http://www.w3.org/1999/xlink" contentScriptType="application/ecmascript" contentStyleType="text/css" height="537px" preserveAspectRatio="none" style="width:641px;height:537px;" version="1.1" viewBox="0 0 641 537" width="641px" zoomAndPan="magnify"><defs><filter height="300%" id="fh1dno3" width="300%" x="-1" y="-1"><feGaussianBlur result="blurOut" stdDeviation="2.0"/><feColorMatrix in="blurOut" result="blurOut2" type="matrix" values="0 0 0 0 0 0 0 0 0 0 0 0 0 0 0 0 0 0 .4 0"/><feOffset dx="4.0" dy="4.0" in="blurOut2" result="blurOut3"/><feBlend in="SourceGraphic" in2="blurOut3" mode="normal"/></filter></defs><g><!--class Network--><rect fill="#FEFECE" filter="url(#fh1dno3)" height="229.2346" style="stroke: #A80036; stroke-width: 1.5;" width="327" x="6" y="8"/><ellipse cx="140.75" cy="24" fill="#ADD1B2" rx="11" ry="11" style="stroke: #A80036; stroke-width: 1.0;"/><path d="M143.7188,29.6406 Q143.1406,29.9375 142.5,30.0859 Q141.8594,30.2344 141.1563,30.2344 Q138.6563,30.2344 137.3359,28.5859 Q136.0156,26.9375 136.0156,23.8125 Q136.0156,20.6875 137.3359,19.0313 Q138.6563,17.375 141.1563,17.375 Q141.8594,17.375 142.5078,17.5313 Q143.1563,17.6875 143.7188,17.9844 L143.7188,20.7031 Q143.0938,20.125 142.5,19.8516 Q141.9063,19.5781 141.2813,19.5781 Q139.9375,19.5781 139.25,20.6484 Q138.5625,21.7188 138.5625,23.8125 Q138.5625,25.9063 139.25,26.9766 Q139.9375,28.0469 141.2813,28.0469 Q141.9063,28.0469 142.5,27.7734 Q143.0938,27.5 143.7188,26.9219 L143.7188,29.6406 Z "/><text fill="#000000" font-family="Inconsolata" font-size="12" lengthAdjust="spacingAndGlyphs" textLength="49" x="161.25" y="29.766">Network</text><line style="stroke: #A80036; stroke-width: 1.5;" x1="7" x2="332" y1="40" y2="40"/><line style="stroke: #A80036; stroke-width: 1.5;" x1="7" x2="332" y1="48" y2="48"/><ellipse cx="17" cy="61.0514" fill="#84BE84" rx="3" ry="3" style="stroke: #038048; stroke-width: 1.0;"/><text fill="#000000" font-family="Inconsolata" font-size="11" lengthAdjust="spacingAndGlyphs" textLength="84" x="26" y="64.8369">stack(layer)</text><ellipse cx="17" cy="76.1543" fill="#84BE84" rx="3" ry="3" style="stroke: #038048; stroke-width: 1.0;"/><text fill="#000000" font-family="Inconsolata" font-size="11" lengthAdjust="spacingAndGlyphs" textLength="140" x="26" y="79.9398">output(output_layer)</text><ellipse cx="17" cy="98.8087" fill="#84BE84" rx="3" ry="3" style="stroke: #038048; stroke-width: 1.0;"/><text fill="#000000" font-family="Inconsolata" font-size="11" lengthAdjust="spacingAndGlyphs" textLength="245" x="26" y="95.0427">train(x_train, y_train, num_epochs,</text><text fill="#000000" font-family="Inconsolata" font-size="11" lengthAdjust="spacingAndGlyphs" textLength="98" x="68" y="110.1456">learning_rate)</text><ellipse cx="17" cy="121.463" fill="#84BE84" rx="3" ry="3" style="stroke: #038048; stroke-width: 1.0;"/><text fill="#000000" font-family="Inconsolata" font-size="11" lengthAdjust="spacingAndGlyphs" textLength="140" x="26" y="125.2485">test(x_test, y_test)</text><ellipse cx="17" cy="144.1173" fill="#84BE84" rx="3" ry="3" style="stroke: #038048; stroke-width: 1.0;"/><text fill="#000000" font-family="Inconsolata" font-size="11" lengthAdjust="spacingAndGlyphs" textLength="301" x="26" y="140.3513">benchmark(x_train, y_train, x_test, y_test,</text><text fill="#000000" font-family="Inconsolata" font-size="11" lengthAdjust="spacingAndGlyphs" textLength="182" x="96" y="155.4542">num_epochs, learning_rate)</text><rect fill="#F24D5C" height="6" style="stroke: #C82930; stroke-width: 1.0;" width="6" x="14" y="163.7717"/><text fill="#000000" font-family="Inconsolata" font-size="11" lengthAdjust="spacingAndGlyphs" textLength="210" x="26" y="170.5571">batcher(batch_size, n_samples)</text><rect fill="#F24D5C" height="6" style="stroke: #C82930; stroke-width: 1.0;" width="6" x="14" y="178.8745"/><text fill="#000000" font-family="Inconsolata" font-size="11" lengthAdjust="spacingAndGlyphs" textLength="266" x="26" y="185.66">prepropagation_check(x_array, y_array)</text><rect fill="#F24D5C" height="6" style="stroke: #C82930; stroke-width: 1.0;" width="6" x="14" y="193.9774"/><text fill="#000000" font-family="Inconsolata" font-size="11" lengthAdjust="spacingAndGlyphs" textLength="189" x="26" y="200.7629">forward_propagation(inputs)</text><rect fill="#F24D5C" height="6" style="stroke: #C82930; stroke-width: 1.0;" width="6" x="14" y="209.0803"/><text fill="#000000" font-family="Inconsolata" font-size="11" lengthAdjust="spacingAndGlyphs" textLength="133" x="26" y="215.8658">back_propagation(y)</text><rect fill="#F24D5C" height="6" style="stroke: #C82930; stroke-width: 1.0;" width="6" x="14" y="224.1832"/><text fill="#000000" font-family="Inconsolata" font-size="11" lengthAdjust="spacingAndGlyphs" textLength="161" x="26" y="230.9687">optimize(learning_rate)</text><!--class Layer--><rect fill="#FEFECE" filter="url(#fh1dno3)" height="153.7202" style="stroke: #A80036; stroke-width: 1.5;" width="264" x="368.5" y="45.5"/><ellipse cx="478.75" cy="61.5" fill="#ADD1B2" rx="11" ry="11" style="stroke: #A80036; stroke-width: 1.0;"/><path d="M481.7188,67.1406 Q481.1406,67.4375 480.5,67.5859 Q479.8594,67.7344 479.1563,67.7344 Q476.6563,67.7344 475.3359,66.0859 Q474.0156,64.4375 474.0156,61.3125 Q474.0156,58.1875 475.3359,56.5313 Q476.6563,54.875 479.1563,54.875 Q479.8594,54.875 480.5078,55.0313 Q481.1563,55.1875 481.7188,55.4844 L481.7188,58.2031 Q481.0938,57.625 480.5,57.3516 Q479.9063,57.0781 479.2813,57.0781 Q477.9375,57.0781 477.25,58.1484 Q476.5625,59.2188 476.5625,61.3125 Q476.5625,63.4063 477.25,64.4766 Q477.9375,65.5469 479.2813,65.5469 Q479.9063,65.5469 480.5,65.2734 Q481.0938,65 481.7188,64.4219 L481.7188,67.1406 Z "/><text fill="#000000" font-family="Inconsolata" font-size="12" lengthAdjust="spacingAndGlyphs" textLength="35" x="499.25" y="67.266">Layer</text><line style="stroke: #A80036; stroke-width: 1.5;" x1="369.5" x2="631.5" y1="77.5" y2="77.5"/><line style="stroke: #A80036; stroke-width: 1.5;" x1="369.5" x2="631.5" y1="85.5" y2="85.5"/><ellipse cx="379.5" cy="98.5514" fill="#84BE84" rx="3" ry="3" style="stroke: #038048; stroke-width: 1.0;"/><text fill="#000000" font-family="Inconsolata" font-size="11" lengthAdjust="spacingAndGlyphs" textLength="238" x="388.5" y="102.3369">forward_propagate(inputs, persist)</text><ellipse cx="379.5" cy="113.6543" fill="#84BE84" rx="3" ry="3" style="stroke: #038048; stroke-width: 1.0;"/><text fill="#000000" font-family="Inconsolata" font-size="11" lengthAdjust="spacingAndGlyphs" textLength="217" x="388.5" y="117.4398">initialise(previous_layer_size)</text><ellipse cx="379.5" cy="128.7572" fill="#84BE84" rx="3" ry="3" style="stroke: #038048; stroke-width: 1.0;"/><text fill="#000000" font-family="Inconsolata" font-size="11" lengthAdjust="spacingAndGlyphs" textLength="238" x="388.5" y="132.5427">back_propagate(W_T_lp1, delta_lp1)</text><ellipse cx="379.5" cy="143.8601" fill="#84BE84" rx="3" ry="3" style="stroke: #038048; stroke-width: 1.0;"/><text fill="#000000" font-family="Inconsolata" font-size="11" lengthAdjust="spacingAndGlyphs" textLength="63" x="388.5" y="147.6456">get_d_W()</text><ellipse cx="379.5" cy="158.963" fill="#84BE84" rx="3" ry="3" style="stroke: #038048; stroke-width: 1.0;"/><text fill="#000000" font-family="Inconsolata" font-size="11" lengthAdjust="spacingAndGlyphs" textLength="63" x="388.5" y="162.7485">get_d_b()</text><ellipse cx="379.5" cy="174.0659" fill="#84BE84" rx="3" ry="3" style="stroke: #038048; stroke-width: 1.0;"/><text fill="#000000" font-family="Inconsolata" font-size="11" lengthAdjust="spacingAndGlyphs" textLength="161" x="388.5" y="177.8513">optimize(learning_rate)</text><ellipse cx="379.5" cy="189.1688" fill="#84BE84" rx="3" ry="3" style="stroke: #038048; stroke-width: 1.0;"/><text fill="#000000" font-family="Inconsolata" font-size="11" lengthAdjust="spacingAndGlyphs" textLength="140" x="388.5" y="192.9542">get_num_parameters()</text><!--class OutputLayer--><rect fill="#FEFECE" filter="url(#fh1dno3)" height="63.1029" style="stroke: #A80036; stroke-width: 1.5;" width="124" x="228.5" y="319.5"/><ellipse cx="250.25" cy="335.5" fill="#ADD1B2" rx="11" ry="11" style="stroke: #A80036; stroke-width: 1.0;"/><path d="M253.2188,341.1406 Q252.6406,341.4375 252,341.5859 Q251.3594,341.7344 250.6563,341.7344 Q248.1563,341.7344 246.8359,340.0859 Q245.5156,338.4375 245.5156,335.3125 Q245.5156,332.1875 246.8359,330.5313 Q248.1563,328.875 250.6563,328.875 Q251.3594,328.875 252.0078,329.0313 Q252.6563,329.1875 253.2188,329.4844 L253.2188,332.2031 Q252.5938,331.625 252,331.3516 Q251.4063,331.0781 250.7813,331.0781 Q249.4375,331.0781 248.75,332.1484 Q248.0625,333.2188 248.0625,335.3125 Q248.0625,337.4063 248.75,338.4766 Q249.4375,339.5469 250.7813,339.5469 Q251.4063,339.5469 252,339.2734 Q252.5938,339 253.2188,338.4219 L253.2188,341.1406 Z "/><text fill="#000000" font-family="Inconsolata" font-size="12" lengthAdjust="spacingAndGlyphs" textLength="77" x="265.75" y="341.266">OutputLayer</text><line style="stroke: #A80036; stroke-width: 1.5;" x1="229.5" x2="351.5" y1="351.5" y2="351.5"/><line style="stroke: #A80036; stroke-width: 1.5;" x1="229.5" x2="351.5" y1="359.5" y2="359.5"/><ellipse cx="239.5" cy="372.5514" fill="#84BE84" rx="3" ry="3" style="stroke: #038048; stroke-width: 1.0;"/><text fill="#000000" font-family="Inconsolata" font-size="11" lengthAdjust="spacingAndGlyphs" textLength="98" x="248.5" y="376.3369">cost(y, y_hat)</text><polygon fill="#FBFB77" filter="url(#fh1dno3)" points="132,465,132,528.547,345,528.547,345,475,335,465,132,465" style="stroke: #A80036; stroke-width: 1.0;"/><polygon fill="#FBFB77" points="132,465,132,528.547,345,528.547,345,475,335,465,253.9408,465,279.2168,382.6798,245.9408,465,132,465" style="stroke: #A80036; stroke-width: 1.0;"/><line style="stroke: #A80036; stroke-width: 1.0;" x1="335" x2="335" y1="465" y2="475"/><line style="stroke: #A80036; stroke-width: 1.0;" x1="345" x2="335" y1="475" y2="475"/><text fill="#000000" font-family="Inconsolata" font-size="13" lengthAdjust="spacingAndGlyphs" textLength="176" x="138" y="485.171">Embeds CrossEntropy as</text><text fill="#000000" font-family="Inconsolata" font-size="13" lengthAdjust="spacingAndGlyphs" textLength="192" x="138" y="503.02">a cost function for now.</text><text fill="#000000" font-family="Inconsolata" font-size="13" lengthAdjust="spacingAndGlyphs" textLength="112" x="138" y="520.869">To be improved</text><!--class ActivationFunction--><rect fill="#FEFECE" filter="url(#fh1dno3)" height="108.4115" style="stroke: #A80036; stroke-width: 1.5;" width="173" x="414" y="297"/><ellipse cx="435.75" cy="313" fill="#ADD1B2" rx="11" ry="11" style="stroke: #A80036; stroke-width: 1.0;"/><path d="M438.7188,318.6406 Q438.1406,318.9375 437.5,319.0859 Q436.8594,319.2344 436.1563,319.2344 Q433.6563,319.2344 432.3359,317.5859 Q431.0156,315.9375 431.0156,312.8125 Q431.0156,309.6875 432.3359,308.0313 Q433.6563,306.375 436.1563,306.375 Q436.8594,306.375 437.5078,306.5313 Q438.1563,306.6875 438.7188,306.9844 L438.7188,309.7031 Q438.0938,309.125 437.5,308.8516 Q436.9063,308.5781 436.2813,308.5781 Q434.9375,308.5781 434.25,309.6484 Q433.5625,310.7188 433.5625,312.8125 Q433.5625,314.9063 434.25,315.9766 Q434.9375,317.0469 436.2813,317.0469 Q436.9063,317.0469 437.5,316.7734 Q438.0938,316.5 438.7188,315.9219 L438.7188,318.6406 Z "/><text fill="#000000" font-family="Inconsolata" font-size="12" lengthAdjust="spacingAndGlyphs" textLength="126" x="451.25" y="318.766">ActivationFunction</text><line style="stroke: #A80036; stroke-width: 1.5;" x1="415" x2="586" y1="329" y2="329"/><rect fill="none" height="6" style="stroke: #C82930; stroke-width: 1.0;" width="6" x="422" y="339.0514"/><text fill="#000000" font-family="Inconsolata" font-size="11" lengthAdjust="spacingAndGlyphs" textLength="112" x="434" y="345.8369">value : function</text><rect fill="none" height="6" style="stroke: #C82930; stroke-width: 1.0;" width="6" x="422" y="354.1543"/><text fill="#000000" font-family="Inconsolata" font-size="11" lengthAdjust="spacingAndGlyphs" textLength="147" x="434" y="360.9398">derivative : function</text><line style="stroke: #A80036; stroke-width: 1.5;" x1="415" x2="586" y1="367.2058" y2="367.2058"/><ellipse cx="425" cy="380.2572" fill="#84BE84" rx="3" ry="3" style="stroke: #038048; stroke-width: 1.0;"/><text fill="#000000" font-family="Inconsolata" font-size="11" lengthAdjust="spacingAndGlyphs" textLength="56" x="434" y="384.0427">value(x)</text><ellipse cx="425" cy="395.3601" fill="#84BE84" rx="3" ry="3" style="stroke: #038048; stroke-width: 1.0;"/><text fill="#000000" font-family="Inconsolata" font-size="11" lengthAdjust="spacingAndGlyphs" textLength="42" x="434" y="399.1456">der(x)</text><!--class ReLu--><rect fill="#FEFECE" filter="url(#fh1dno3)" height="48" style="stroke: #A80036; stroke-width: 1.5;" width="60" x="496.5" y="473"/><ellipse cx="511.5" cy="489" fill="#ADD1B2" rx="11" ry="11" style="stroke: #A80036; stroke-width: 1.0;"/><path d="M514.4688,494.6406 Q513.8906,494.9375 513.25,495.0859 Q512.6094,495.2344 511.9063,495.2344 Q509.4063,495.2344 508.0859,493.5859 Q506.7656,491.9375 506.7656,488.8125 Q506.7656,485.6875 508.0859,484.0313 Q509.4063,482.375 511.9063,482.375 Q512.6094,482.375 513.2578,482.5313 Q513.9063,482.6875 514.4688,482.9844 L514.4688,485.7031 Q513.8438,485.125 513.25,484.8516 Q512.6563,484.5781 512.0313,484.5781 Q510.6875,484.5781 510,485.6484 Q509.3125,486.7188 509.3125,488.8125 Q509.3125,490.9063 510,491.9766 Q510.6875,493.0469 512.0313,493.0469 Q512.6563,493.0469 513.25,492.7734 Q513.8438,492.5 514.4688,491.9219 L514.4688,494.6406 Z "/><text fill="#000000" font-family="Inconsolata" font-size="12" lengthAdjust="spacingAndGlyphs" textLength="28" x="525.5" y="494.766">ReLu</text><line style="stroke: #A80036; stroke-width: 1.5;" x1="497.5" x2="555.5" y1="505" y2="505"/><line style="stroke: #A80036; stroke-width: 1.5;" x1="497.5" x2="555.5" y1="513" y2="513"/><!--class SoftMax--><rect fill="#FEFECE" filter="url(#fh1dno3)" height="48" style="stroke: #A80036; stroke-width: 1.5;" width="81" x="380" y="473"/><ellipse cx="395" cy="489" fill="#ADD1B2" rx="11" ry="11" style="stroke: #A80036; stroke-width: 1.0;"/><path d="M397.9688,494.6406 Q397.3906,494.9375 396.75,495.0859 Q396.1094,495.2344 395.4063,495.2344 Q392.9063,495.2344 391.5859,493.5859 Q390.2656,491.9375 390.2656,488.8125 Q390.2656,485.6875 391.5859,484.0313 Q392.9063,482.375 395.4063,482.375 Q396.1094,482.375 396.7578,482.5313 Q397.4063,482.6875 397.9688,482.9844 L397.9688,485.7031 Q397.3438,485.125 396.75,484.8516 Q396.1563,484.5781 395.5313,484.5781 Q394.1875,484.5781 393.5,485.6484 Q392.8125,486.7188 392.8125,488.8125 Q392.8125,490.9063 393.5,491.9766 Q394.1875,493.0469 395.5313,493.0469 Q396.1563,493.0469 396.75,492.7734 Q397.3438,492.5 397.9688,491.9219 L397.9688,494.6406 Z "/><text fill="#000000" font-family="Inconsolata" font-size="12" lengthAdjust="spacingAndGlyphs" textLength="49" x="409" y="494.766">SoftMax</text><line style="stroke: #A80036; stroke-width: 1.5;" x1="381" x2="460" y1="505" y2="505"/><line style="stroke: #A80036; stroke-width: 1.5;" x1="381" x2="460" y1="513" y2="513"/><path d="M346.3053,122.5 C353.6634,122.5 361.0216,122.5 368.3798,122.5 " fill="none" style="stroke: #A80036; stroke-width: 1.0;"/><polygon fill="#A80036" points="333.0605,122.5,339.0605,126.5,345.0605,122.5,339.0605,118.5,333.0605,122.5" style="stroke: #A80036; stroke-width: 1.0;"/><text fill="#000000" font-family="Inconsolata" font-size="13" lengthAdjust="spacingAndGlyphs" textLength="8" x="341.1767" y="120.2742">1</text><text fill="#000000" font-family="Inconsolata" font-size="13" lengthAdjust="spacingAndGlyphs" textLength="8" x="353.2556" y="141.9578">*</text><path d="M236.3693,248.778 C250.2716,275.0316 263.7204,300.4285 273.7351,319.3406 " fill="none" style="stroke: #A80036; stroke-width: 1.0;"/><polygon fill="#A80036" points="230.1772,237.0847,229.4502,244.2591,235.7931,247.6895,236.5201,240.5152,230.1772,237.0847" style="stroke: #A80036; stroke-width: 1.0;"/><text fill="#000000" font-family="Inconsolata" font-size="13" lengthAdjust="spacingAndGlyphs" textLength="8" x="223.0289" y="260.5461">1</text><text fill="#000000" font-family="Inconsolata" font-size="13" lengthAdjust="spacingAndGlyphs" textLength="8" x="261.1928" y="308.8084">1</text><path d="M415.7777,214.6859 C381.5965,251.8783 344.4349,292.3137 319.5359,319.4062 " fill="none" style="stroke: #A80036; stroke-width: 1.0;"/><polygon fill="none" points="411.0089,209.5301,429.6963,199.5411,421.3169,219.0035,411.0089,209.5301" style="stroke: #A80036; stroke-width: 1.0;"/><path d="M500.5,212.8823 C500.5,241.3528 500.5,271.8931 500.5,296.9974 " fill="none" style="stroke: #A80036; stroke-width: 1.0;"/><polygon fill="#A80036" points="500.5,199.5411,496.5,205.5411,500.5,211.5411,504.5,205.5411,500.5,199.5411" style="stroke: #A80036; stroke-width: 1.0;"/><text fill="#000000" font-family="Inconsolata" font-size="13" lengthAdjust="spacingAndGlyphs" textLength="8" x="492.1438" y="222.3809">1</text><text fill="#000000" font-family="Inconsolata" font-size="13" lengthAdjust="spacingAndGlyphs" textLength="8" x="489.125" y="286.4097">1</text><path d="M513.6887,425.0594 C516.7632,442.3241 519.8237,459.5099 522.182,472.7528 " fill="none" style="stroke: #A80036; stroke-width: 1.0;"/><polygon fill="none" points="506.7964,426.2825,510.1814,405.365,520.5796,423.8279,506.7964,426.2825" style="stroke: #A80036; stroke-width: 1.0;"/><path d="M460.9935,423.0994 C451.1751,441.018 441.3171,459.0088 433.7861,472.7528 " fill="none" style="stroke: #A80036; stroke-width: 1.0;"/><polygon fill="none" points="454.9614,419.5408,470.711,405.365,467.239,426.2683,454.9614,419.5408" style="stroke: #A80036; stroke-width: 1.0;"/><path d="M327.5387,392.5973 C350.5709,418.4642 379.39,450.8303 398.7844,472.6117 " fill="none" style="stroke: #A80036; stroke-width: 1.0;"/><polygon fill="#A80036" points="318.7081,382.6798,319.7107,389.8209,326.6881,391.6419,325.6855,384.5009,318.7081,382.6798" style="stroke: #A80036; stroke-width: 1.0;"/></g></svg>